<?xml version="1.0" encoding="UTF-8" standalone="no"?>
<!-- Created with Inkscape (http://www.inkscape.org/) -->

<svg
   xmlns:dc="http://purl.org/dc/elements/1.1/"
   xmlns:cc="http://creativecommons.org/ns#"
   xmlns:rdf="http://www.w3.org/1999/02/22-rdf-syntax-ns#"
   xmlns:svg="http://www.w3.org/2000/svg"
   xmlns="http://www.w3.org/2000/svg"
   xmlns:sodipodi="http://sodipodi.sourceforge.net/DTD/sodipodi-0.dtd"
   xmlns:inkscape="http://www.inkscape.org/namespaces/inkscape"
   width="256"
   height="128"
   viewBox="0 0 256 128"
   id="svg2"
   version="1.1"
   inkscape:version="0.91 r13725"
   sodipodi:docname="fuelContainer.svg"
   inkscape:export-filename="C:\Users\Paha\Google Drive\AllProjectFiles\Java\SpaceSlingshot\android\gameScreenData\fuelContainer.png"
   inkscape:export-xdpi="92.8125"
   inkscape:export-ydpi="92.8125">
  <defs
     id="defs4" />
  <sodipodi:namedview
     id="base"
     pagecolor="#ffffff"
     bordercolor="#666666"
     borderopacity="1.0"
     inkscape:pageopacity="0.0"
     inkscape:pageshadow="2"
     inkscape:zoom="1.979899"
     inkscape:cx="90.326452"
     inkscape:cy="89.335663"
     inkscape:document-units="px"
     inkscape:current-layer="g4804"
     showgrid="false"
     units="px"
     inkscape:window-width="1680"
     inkscape:window-height="987"
     inkscape:window-x="1912"
     inkscape:window-y="-8"
     inkscape:window-maximized="1" />
  <metadata
     id="metadata7">
    <rdf:RDF>
      <cc:Work
         rdf:about="">
        <dc:format>image/svg+xml</dc:format>
        <dc:type
           rdf:resource="http://purl.org/dc/dcmitype/StillImage" />
        <dc:title />
      </cc:Work>
    </rdf:RDF>
  </metadata>
  <g
     inkscape:groupmode="layer"
     id="layer2"
     inkscape:label="Container">
    <g
       id="g4804"
       transform="translate(4.5358221,0)">
      <path
         inkscape:connector-curvature="0"
         id="path4777-5"
         d="M 224.53125,9.1416007 22.304688,9.3935539 C 21.859227,9.3941139 21.4985,9.7527814 21.5,10.198241 l 0.357422,107.677739 c 0.0015,0.4455 0.359227,0.80428 0.804687,0.80468 L 224.625,118.8584 c 0.21568,1.9e-4 0.40857,-0.0853 0.55273,-0.22266 A 14.600102,54.778675 0 0 0 238.95703,63.965819 14.600102,54.778675 0 0 0 224.99609,9.3056633 c -0.13268,-0.096728 -0.28732,-0.1642817 -0.46484,-0.1640626 z"
         style="opacity:1;fill:#605fe1;fill-opacity:1;stroke:#000000;stroke-width:2;stroke-linecap:butt;stroke-linejoin:bevel;stroke-miterlimit:4;stroke-dasharray:none;stroke-opacity:1" />
      <ellipse
         ry="54.778675"
         rx="14.600102"
         cy="64"
         cx="22.571428"
         id="path4777"
         style="opacity:1;fill:#7370da;fill-opacity:1;stroke:#000000;stroke-width:2;stroke-linecap:butt;stroke-linejoin:bevel;stroke-miterlimit:4;stroke-dasharray:none;stroke-opacity:1" />
    </g>
  </g>
  <g
     inkscape:label="FuelIcon"
     inkscape:groupmode="layer"
     id="layer1"
     transform="translate(0,-924.36216)">
    <path
       style="opacity:1;fill:#0d131d;fill-opacity:1;stroke:#000000;stroke-width:1;stroke-linecap:butt;stroke-linejoin:bevel;stroke-miterlimit:4;stroke-dasharray:none;stroke-opacity:1"
       d="m 99.846273,949.52474 c -0.243856,0 -0.472144,0.103 -0.650391,0.2636 -0.173648,-0.1579 -0.400024,-0.2597 -0.654297,-0.2597 l -29.105469,0 c -0.542136,0 -0.978515,0.4364 -0.978515,0.9785 l 0,5.8711 c 0,0.5421 0.436379,0.9785 0.978515,0.9785 l 29.105469,0 c 0.08474,0 0.159968,-0.027 0.238281,-0.047 l 17.058604,4.5703 c -1.05706,2.9246 -1.4773,6.4258 -0.99805,10.5059 0.72733,6.1922 3.1837,11.1365 6.28906,14.959 l -17.76758,18.09376 c -0.22714,0.2272 -1.93144,2.6668 -1.93144,2.6668 -0.16219,0.3848 0.0156,0.8261 0.40039,0.9883 l 42.83184,18.05 c 0.32112,0.1353 0.67241,0.023 0.87695,-0.2383 0.35764,0.3245 0.90469,0.3219 1.25,-0.023 l 18.97461,-18.9746 c 0.0941,-0.094 0.15876,-0.2039 0.20312,-0.3203 1.65702,0.5914 2.91651,1.0494 3.12697,1.1425 0.73632,0.3261 11.54979,4.2954 14.05468,-1.7187 2.25321,-5.4098 3.993,-7.60895 4.32032,-13.15046 0.32732,-5.5414 -0.30028,-10.7435 -4.55665,-14.1269 -6.41731,-5.1011 -8.41713,-6.7658 -13.29687,-11.1055 -6.62264,-5.8897 -9.19947,-9.0926 -16.81446,-14.6426 -7.61499,-5.5499 -18.41807,-4.0748 -25.98633,-2.1367 -2.31027,0.5916 -4.44848,1.662 -6.27148,3.1855 l -20.44923,-5.4785 c -0.0833,-0.022 -0.166762,-0.032 -0.248047,-0.031 z m 24.779307,41.4609 c 1.08507,0.9566 2.19336,1.8065 3.30078,2.5469 l -0.13458,9.83656 c 0.0548,0.5815 0.0181,0.7693 0.27911,0.8393 l 19.68164,5.2734 c 0.26101,0.07 0.52577,-0.085 0.5957,-0.3457 l 0.56055,-2.0859 c 0.0699,-0.261 -0.0847,-0.5278 -0.3457,-0.5977 l -17.35352,-4.6504 0,-6.34966 c 5.88587,3.11371 10.82713,4.46841 19.01953,6.86916 2.59538,0.7606 6.26094,1.9833 9.69727,3.1602 l -16.06641,16.0664 -35.03125,-14.7656 z"
       id="rect4684"
       inkscape:connector-curvature="0"
       sodipodi:nodetypes="scssssssccsccccscscccssssssccsccccccccccscccc" />
  </g>
</svg>
