<?xml version="1.0" encoding="UTF-8" standalone="no"?>
<!-- Created with Inkscape (http://www.inkscape.org/) -->

<svg
   xmlns:dc="http://purl.org/dc/elements/1.1/"
   xmlns:cc="http://creativecommons.org/ns#"
   xmlns:rdf="http://www.w3.org/1999/02/22-rdf-syntax-ns#"
   xmlns:svg="http://www.w3.org/2000/svg"
   xmlns="http://www.w3.org/2000/svg"
   xmlns:sodipodi="http://sodipodi.sourceforge.net/DTD/sodipodi-0.dtd"
   xmlns:inkscape="http://www.inkscape.org/namespaces/inkscape"
   width="512"
   height="512"
   viewBox="0 0 512.00001 512.00001"
   id="svg2"
   version="1.1"
   inkscape:version="0.91 r13725"
   sodipodi:docname="spaceship.svg"
   inkscape:export-filename="C:\Users\Paha\Google Drive\AllProjectFiles\Java\SpaceSlingshot\android\gameScreenData\spaceship.png"
   inkscape:export-xdpi="92.8125"
   inkscape:export-ydpi="92.8125">
  <defs
     id="defs4" />
  <sodipodi:namedview
     id="base"
     pagecolor="#ffffff"
     bordercolor="#666666"
     borderopacity="1.0"
     inkscape:pageopacity="0.0"
     inkscape:pageshadow="2"
     inkscape:zoom="1.6821407"
     inkscape:cx="214.01303"
     inkscape:cy="266.92582"
     inkscape:document-units="px"
     inkscape:current-layer="layer1"
     showgrid="false"
     units="px"
     inkscape:window-width="1920"
     inkscape:window-height="1017"
     inkscape:window-x="-8"
     inkscape:window-y="-8"
     inkscape:window-maximized="1" />
  <metadata
     id="metadata7">
    <rdf:RDF>
      <cc:Work
         rdf:about="">
        <dc:format>image/svg+xml</dc:format>
        <dc:type
           rdf:resource="http://purl.org/dc/dcmitype/StillImage" />
        <dc:title></dc:title>
      </cc:Work>
    </rdf:RDF>
  </metadata>
  <g
     inkscape:label="Layer 1"
     inkscape:groupmode="layer"
     id="layer1"
     transform="translate(0,-540.36216)">
    <path
       style="fill:none;fill-rule:evenodd;stroke:#000000;stroke-width:1px;stroke-linecap:butt;stroke-linejoin:miter;stroke-opacity:1"
       d="m 398.29847,839.80362 c 7.60468,-11.45479 8.31398,-34.66487 8.31398,-34.66487 l 2.81941,-31.05574 c 0,0 -50.84503,-14.62105 -80.11487,-17.90141 -29.26985,-3.28036 -57.25672,-4.85 -80.50537,-5.82531 -23.24865,-0.97532 -52.4273,-3.65272 -76.50575,-1.68144 -24.07845,1.97128 -73.329687,14.55185 -89.848067,24.50045 -16.518379,9.9486 -32.154395,19.29821 -33.586653,32.23594 -1.432258,12.93773 8.842669,23.61421 18.207405,27.4466 9.364735,3.83239 101.344245,20.29864 131.229955,24.06621 29.88571,3.76757 151.77154,4.04188 164.04289,4.04188 12.27135,0 28.34239,-9.70752 35.94707,-21.16231 z"
       id="path4686"
       inkscape:connector-curvature="0"
       sodipodi:nodetypes="zcczzzzzzzzz" />
    <path
       style="fill:none;fill-rule:evenodd;stroke:#000000;stroke-width:1px;stroke-linecap:butt;stroke-linejoin:miter;stroke-opacity:1"
       d="m 121.86852,759.28323 c 0,0 21.35066,5.35843 35.07436,6.53929 13.7237,1.18085 20.0041,1.63443 34.47987,-1.78344 14.47577,-3.41788 27.3461,-14.86202 27.3461,-14.86202"
       id="path4688"
       inkscape:connector-curvature="0"
       sodipodi:nodetypes="czzc" />
    <path
       style="fill:none;fill-rule:evenodd;stroke:#000000;stroke-width:1px;stroke-linecap:butt;stroke-linejoin:miter;stroke-opacity:1"
       d="m 97.494815,818.13681 54.692215,-2.37792 156.18665,7.584 143.90141,-13.65555 13.49894,1.29096 -69.56148,26.70425"
       id="path4690"
       inkscape:connector-curvature="0"
       sodipodi:nodetypes="cccccc" />
    <path
       style="fill:none;fill-rule:evenodd;stroke:#000000;stroke-width:1px;stroke-linecap:butt;stroke-linejoin:miter;stroke-opacity:1"
       d="m 373.41829,768.54868 c 0,0 36.89523,-2.45725 45.08366,-3.72863 8.18843,-1.27138 11.16361,11.39712 10.96545,17.93641 -0.19816,6.53929 2.40089,22.431 -7.9508,21.74954 -10.35169,-0.68146 -27.3636,-4.75584 -27.3636,-4.75584"
       id="path4692"
       inkscape:connector-curvature="0"
       sodipodi:nodetypes="czzzc" />
    <path
       style="fill:none;fill-rule:evenodd;stroke:#000000;stroke-width:1px;stroke-linecap:butt;stroke-linejoin:miter;stroke-opacity:1"
       d="m 344.69622,861.09779 -22.0504,6.8999 -11.77012,0 12.0761,-7.19714"
       id="path4694"
       inkscape:connector-curvature="0"
       sodipodi:nodetypes="cccc" />
    <path
       style="fill:none;fill-rule:evenodd;stroke:#000000;stroke-width:1px;stroke-linecap:butt;stroke-linejoin:miter;stroke-opacity:1"
       d="m 365.29392,762.73326 c 2.94253,-1.68144 24.80132,-13.45156 24.80132,-13.45156 l 13.87192,0 -5.04434,21.43842"
       id="path4696"
       inkscape:connector-curvature="0"
       sodipodi:nodetypes="cccc" />
  </g>
</svg>
